<svg id="Layer_1" data-name="Layer 1" xmlns="http://www.w3.org/2000/svg" viewBox="0 0 1080 1080"><defs><style>.cls-1{fill:#f8f8f9;}.cls-2{fill:#ae2e53;}.cls-3{fill:#fff;}</style></defs><rect class="cls-1" x="-9.31" y="-5.52" width="1096.72" height="1096.72"/><path class="cls-2" d="M357.38,899.19q-3.47-.13-6.91-.14c-2.3,0-4.61,0-6.91.1s-4.6.15-6.9.27v5.18q0,7.53.18,13.4t.55,11.49a29.13,29.13,0,0,0-3.36-.18h-8.18a29.13,29.13,0,0,0-3.36.18q.36-5.64.54-11.49t.19-13.4V892.24q0-7.54-.19-13.4t-.54-11.77c1,.13,2.15.23,3.36.32s2.58.14,4.09.14,2.87,0,4.09-.14,2.33-.19,3.36-.32q-.47,5.91-.59,11.68t-.14,13.31c1.58.06,3.47.11,5.68.14s5,0,8.22,0,5.94,0,8,0,4-.08,5.73-.14q0-7.54-.18-13.31t-.55-11.68c1,.13,2.15.23,3.36.32s2.58.14,4.09.14,2.88,0,4.09-.14,2.33-.19,3.36-.32q-.36,5.91-.54,11.77t-.19,13.4V904.6q0,7.53.19,13.4t.54,11.49a29.13,29.13,0,0,0-3.36-.18h-8.18a29.13,29.13,0,0,0-3.36.18q.36-5.64.55-11.49t.18-13.4v-5.18Q360.83,899.33,357.38,899.19Z"/><path class="cls-2" d="M445.13,929.49c-1.45-.12-2.83-.18-4.13-.18h-7.72c-1.3,0-2.59.06-3.86.18q-1.46-4.46-3-9.09t-3.27-9.26c-1.94-.06-3.88-.11-5.82-.14s-3.87,0-5.81,0c-1.58,0-3.15,0-4.72,0s-3.15.08-4.73.14q-1.81,4.64-3.36,9.26t-2.82,9.09a13,13,0,0,0-2.13-.18h-4.32a17,17,0,0,0-2.36.18c.73-1.57,1.7-3.76,2.91-6.54s2.54-5.94,4-9.45,3-7.28,4.69-11.31,3.33-8.1,5-12.22,3.3-8.18,4.91-12.17,3.07-7.73,4.4-11.18c.61.12,1.18.23,1.73.32a11.51,11.51,0,0,0,3.45,0c.55-.09,1.12-.2,1.73-.32l6.22,16.54q3.31,8.8,6.68,17.3t6.54,16.13Q442.5,924.22,445.13,929.49ZM413,884.15q-2.37,5.46-4.45,10.77t-4.09,10.86h16.63q-2-5.55-3.95-10.86C415.8,891.38,414.43,887.79,413,884.15Z"/><path class="cls-2" d="M455.3,885.16c0-4.18-.06-7.7-.17-10.54s-.22-5.36-.28-7.55a18.41,18.41,0,0,0,8.18,0q9.9,11,19.57,21.63t19.85,21.62V893.6c0-3,0-5.89,0-8.76s-.06-5.53-.09-8-.09-4.51-.18-6.27a30,30,0,0,0-.32-3.55,18.37,18.37,0,0,0,8.17,0q-.45,8.28-.72,14.95t-.45,12.58c-.13,3.94-.2,7.83-.23,11.68s0,8,0,12.31v10.9q-1.82-.18-3.72-.18a30.79,30.79,0,0,0-3.54.18q-18.72-21.81-39.7-43.88c-.07,1.76-.11,3.51-.14,5.27s-.05,3.54-.05,5.36v10.54q0,5.44.05,9.26c0,2.55.07,4.7.14,6.45s.12,3.2.18,4.32.11,2,.18,2.68a13.45,13.45,0,0,0-2.18-.18h-2.09c-1.4,0-2.79.06-4.18.18a50.81,50.81,0,0,0,.45-5.18c.19-3,.38-6.59.59-10.86s.4-8.9.55-13.9S455.3,889.76,455.3,885.16Z"/><path class="cls-2" d="M574.77,929.49c-1.45-.12-2.82-.18-4.13-.18h-7.72c-1.3,0-2.59.06-3.86.18q-1.45-4.46-3-9.09t-3.27-9.26c-1.94-.06-3.88-.11-5.81-.14s-3.88,0-5.82,0c-1.57,0-3.15,0-4.72,0s-3.15.08-4.73.14q-1.82,4.64-3.36,9.26c-1,3.09-2,6.12-2.81,9.09a13.24,13.24,0,0,0-2.14-.18h-4.32a17,17,0,0,0-2.36.18c.73-1.57,1.7-3.76,2.91-6.54s2.55-5.94,4-9.45l4.68-11.31q2.49-6,5-12.22t4.91-12.17q2.4-6,4.41-11.18c.6.12,1.18.23,1.72.32a11.51,11.51,0,0,0,3.45,0c.55-.09,1.12-.2,1.73-.32l6.22,16.54q3.33,8.8,6.68,17.3T569,916.59Q572.14,924.22,574.77,929.49Zm-32.15-45.34q-2.37,5.46-4.46,10.77t-4.09,10.86H550.7q-2-5.55-4-10.86T542.62,884.15Z"/><path class="cls-2" d="M578.41,915.13c.12-.78.23-1.54.31-2.27a15.86,15.86,0,0,0,.14-2.18,16.06,16.06,0,0,0-.14-2.18c-.08-.72-.19-1.45-.31-2.18l12.4-19q6.13-9.4,12.67-19l2.95.32c.94.09,1.93.13,3,.13s2,0,3-.13l2.95-.32q-.27,2.09-.45,6.08c-.12,2.67-.22,5.68-.28,9s-.1,7-.13,10.77,0,7.6,0,11.36l8-.64q-.18,1.36-.27,2.73c-.07.9-.1,1.78-.1,2.63s0,1.72.1,2.63.15,1.79.27,2.64l-8-.55q0,3.82.14,7.45a60.19,60.19,0,0,0,.68,7.09,33.22,33.22,0,0,0-3.45-.18h-6.9a33.27,33.27,0,0,0-3.46.18l.82-14.36ZM602,878.61c-.85,1.22-2,2.85-3.36,4.91s-2.91,4.31-4.54,6.77-3.31,5-5,7.58l-4.72,7.27h17.8V878.61Z"/><path class="cls-2" d="M685.88,929.49c-1.45-.12-2.83-.18-4.13-.18H674c-1.3,0-2.58.06-3.86.18q-1.45-4.46-3-9.09t-3.27-9.26c-1.94-.06-3.88-.11-5.82-.14s-3.88,0-5.81,0c-1.58,0-3.16,0-4.73,0s-3.15.08-4.72.14q-1.82,4.64-3.36,9.26c-1,3.09-2,6.12-2.82,9.09a13.15,13.15,0,0,0-2.14-.18h-4.31a16.78,16.78,0,0,0-2.36.18c.72-1.57,1.69-3.76,2.91-6.54s2.54-5.94,4-9.45,3-7.28,4.68-11.31,3.33-8.1,5-12.22,3.3-8.18,4.9-12.17,3.08-7.73,4.41-11.18c.6.12,1.18.23,1.73.32a10.45,10.45,0,0,0,1.72.13,10.66,10.66,0,0,0,1.73-.13l1.73-.32q2.89,7.73,6.22,16.54t6.67,17.3q3.36,8.5,6.54,16.13T685.88,929.49Zm-32.16-45.34q-2.37,5.46-4.45,10.77t-4.09,10.86H661.8q-2-5.55-3.95-10.86T653.72,884.15Z"/><path class="cls-2" d="M695.05,878.84q-.18-5.87-.54-11.77c1,.13,2.15.23,3.36.32s2.58.14,4.09.14,2.87,0,4.09-.14,2.33-.19,3.36-.32q-.36,5.91-.55,11.77t-.18,13.4V904.6q0,5.17.05,10c0,3.21.07,6,.13,8.36,3.45,0,6.91-.09,10.36-.28s6.94-.48,10.45-.9c-.13.66-.21,1.27-.27,1.81a28.8,28.8,0,0,0,0,4.55,6.15,6.15,0,0,0,.27,1.36q-2.46-.09-6-.14c-2.4,0-5.68,0-9.86,0h-14.4c-1.37,0-2.39,0-3.09,0s-1.29.08-1.77.14q.36-5.64.54-11.49t.19-13.4V892.24Q695.24,884.7,695.05,878.84Z"/><path class="cls-2" d="M740.48,878.84q-.18-5.87-.54-11.77c1,.13,2.14.23,3.36.32s2.57.14,4.09.14,2.87,0,4.08-.14,2.33-.19,3.36-.32q-.36,5.91-.54,11.77t-.18,13.4V904.6q0,5.17,0,10c0,3.21.08,6,.14,8.36q5.18,0,10.36-.28t10.44-.9c-.12.66-.21,1.27-.27,1.81a28.8,28.8,0,0,0,0,4.55,6.79,6.79,0,0,0,.27,1.36c-1.63-.06-3.65-.11-6-.14s-5.67,0-9.85,0H744.8c-1.37,0-2.4,0-3.09,0s-1.29.08-1.77.14q.36-5.64.54-11.49t.18-13.4V892.24Q740.66,884.7,740.48,878.84Z"/><rect class="cls-2" x="245.44" y="169.47" width="609.13" height="622.62" rx="89.42"/><rect class="cls-3" x="320.1" y="310.4" width="80.18" height="461.03" rx="34.62"/><rect class="cls-3" x="509.91" y="190.13" width="80.18" height="581.3" rx="34.63"/><path class="cls-3" d="M838.48,247.41c-3.65-6.33-11.3-8.9-17.51-5.9L184,549.92c-13.21,6.39-17.82,23.26-10.05,36.72l13,22.57c7.27,12.59,22.78,17.23,34.65,10.38L834.08,266C840.35,262.39,842.32,254.06,838.48,247.41Z"/><circle class="cls-2" cx="910.99" cy="208.77" r="18.57"/></svg>